# xmcd
#
# Track frame offsets:
#	150
#	16219
#	35502
#	56590
#	71554
#	93271
#	108429
#	124319
#	147016
#	156284
#	174941
#	194119
#	210381
#	224086
#	239703
#
# Disc length: 3477 seconds
#
# Revision: 0
# Processed by: cddbd v1.5.1PL0 Copyright (c) Steve Scherf et al.
# Submitted via: audiograbber 1.81.02
#
DISCID=e00d930f
DTITLE=Eric Bibb - just like love
DYEAR=1900
DGENRE=Pop
TTITLE0=wrapped up in her arms
TTITLE1=my charleston dream
TTITLE2=dear john
TTITLE3=just like love
TTITLE4=she's still with me
TTITLE5=i wanna be ready
TTITLE6=katri's kindness
TTITLE7=get it while it's hot
TTITLE8=home in that rock
TTITLE9=forever ago
TTITLE10=deep sea blues
TTITLE11=sail away ladies
TTITLE12=all your sweetness
TTITLE13=rock island rocket
TTITLE14=marley's mood
EXTD=
EXTT0=
EXTT1=
EXTT2=
EXTT3=
EXTT4=
EXTT5=
EXTT6=
EXTT7=
EXTT8=
EXTT9=
EXTT10=
EXTT11=
EXTT12=
EXTT13=
EXTT14=
PLAYORDER=
